Genre:Comedy | Romance 
Language:English
IMDb:http://www.imdb.com/title/tt1481572/
Source:DVD


Format                           : Matroska
File size                        : 1.29 GiB
Duration                         : 1h 34mn
Overall bit rate                 : 1 960 Kbps


Video
Format settings, CABAC           : Yes
Format settings, ReFrames        : 4 frames
Codec ID                         : V_MPEG4/ISO/AVC
Duration                         : 1h 34mn
Bit rate                         : 1 500 Kbps
Width                            : 720 pixels
Height                           : 384 pixels
Display aspect ratio             : 1.875
Frame rate mode                  : Variable
Frame rate                       : 25.000 fps
Color space                      : YUV
Chroma subsampling               : 4:2:0
Bit depth                        : 8 bits
Scan type                        : Progressive
Bits/(Pixel*Frame)               : 0.217
Stream size                      : 994 MiB (75%)
Writing library                  : x264


Audio
ID                               : 2
Format                           : AC-3
Format/Info                      : Audio Coding 3
Mode extension                   : CM (complete main)
Codec ID                         : A_AC3
Duration                         : 1h 34mn
Bit rate mode                    : Constant
Bit rate                         : 448 Kbps
Channel(s)                       : 6 channels
Channel positions                : Front: L C R, Side: L R, LFE
Sampling rate                    : 48.0 KHz
Bit depth                        : 16 bits
Video delay                      : -1mn 5s
Stream size                      : 303 MiB (23%)
Language                         : English

    
Plot:
  Captures a generational moment - young people on the cusp of truly growing up, tiring of their reflexive cynicism, each in their own ways struggling to connect and define what it means to love and be loved. 

TRAILER:http://www.imdb.com/video/imdb/vi2767231769/

 
http://shareimage.org/images/0ck5merzvvxwq7qkrn3.png
 
http://shareimage.org/images/24xjsphs0xln3fee6vij.png
 
http://shareimage.org/images/he07wg49t8hy7lorrdln.png
 
http://shareimage.org/images/vyiqqdze4p85awwsey5.png
 
http://shareimage.org/images/5yyknusz8d5eicoow63.png

 
http://shareimage.org/images/n645bm9wqp3een5s5t.png


Greets:

INK,CRYS,IMAGINE,LKRG,FXG,3Li,FLAWL3SS,TA,ViSiON,LU,TheFalcon007,PrisM,Noir,WBZ,LAP,Rx,Kingdom,SAFCuk009+Fabreezy,HDLiTE,TWiZTED,ExtraTorrentRG.ELEKTRI4KA,MAGNAT,CM8
                And to all the other p2p grps past and present 
 


Make sure its a real Feel-Free release @ extratorrent